# xmcd
#
# Track frame offsets:
#	150
#	13912
#	26725
#	47164
#	63680
#	71022
#	87327
#	95542
#	113458
#	129720
#
# Disc length: 2024 seconds
#
# Revision: 1
# Processed by: cddbd v1.4PL0 Copyright (c) Steve Scherf et al.
# Submitted via: CDmax 1.9
#
DISCID=8b07e60a
DTITLE=HGH - Pignoise
DYEAR=2000
DGENRE=Country
TTITLE0=Old Banjo
TTITLE1=Wet Your Lips
TTITLE2=Excuses
TTITLE3=Rosewood Brown
TTITLE4=Devil In The Floor
TTITLE5=Dirt Poor
TTITLE6=Apple Tree
TTITLE7=Flack Flack Flack
TTITLE8=Paranoia
TTITLE9=Who Placed The Ark In Arkansas
EXTD=
EXTT0=
EXTT1=
EXTT2=
EXTT3=
EXTT4=
EXTT5=
EXTT6=
EXTT7=
EXTT8=
EXTT9=
PLAYORDER=
